# xmcd CD database file
#
# Track frame offsets:
#	150
#	22033
#	50755
#	65628
#	85125
#	118140
#	145003
#
# Disc length: 2229 seconds
#
# Revision: 0
# Processed by: cddbd v1.5.1PL0 Copyright (c) Steve Scherf et al.
# Submitted via: CDex 1.51
#
DISCID=6308b307
DTITLE=Marilyn Mazur - Harry Beckett - Chris McGregor - Grandmothers Teaching
DYEAR=1900
DGENRE=Jazz
TTITLE0=Have You Noticed, Spring Is A Good Time
TTITLE1=Put It Right
TTITLE2=Maxine
TTITLE3=I Will Let The Spring To Explain
TTITLE4=Boys From Somafco
TTITLE5=Cosy'n Rosy
TTITLE6=Pretoria Three
EXTD=
EXTT0=
EXTT1=
EXTT2=
EXTT3=
EXTT4=
EXTT5=
EXTT6=
PLAYORDER=
